<svg xmlns="http://www.w3.org/2000/svg" viewBox="0 0 30 30"><g id="Camada_5" data-name="Camada 5"><polygon points="11.37 5.36 6.53 4.51 7.38 9.36 10.41 12.32 14.28 8.35 11.37 5.36"/><polygon points="26.17 20.88 25.52 21.52 22.39 18.39 24.33 16.45 22.99 15.11 21.91 16.19 19.58 13.79 15.75 17.51 18.21 19.9 17.13 20.98 18.46 22.31 20.4 20.38 23.54 23.51 22.89 24.16 24.22 25.49 25.86 23.85 27.5 22.2 26.17 20.88"/><polygon points="23.47 4.51 18.63 5.36 8.09 16.19 7.01 15.11 5.67 16.45 7.61 18.39 4.48 21.52 3.83 20.88 2.5 22.2 4.14 23.85 23.47 4.51"/><polygon points="23.47 4.51 22.62 9.36 11.79 19.9 12.87 20.98 11.54 22.31 9.6 20.38 6.46 23.51 7.11 24.16 5.78 25.49 4.14 23.85 23.47 4.51"/></g></svg>